#N canvas 107 110 286 286 10;
#X obj 49 41 inlet;
#X obj 136 39 inlet;
#X obj 49 235 outlet;
#X obj 136 235 outlet;
#X obj 50 209 list;
#X obj 137 146 list prepend;
#X obj 224 146 t a;
#N canvas 0 22 450 392 iterate 0;
#X obj 64 28 inlet;
#X obj 68 304 outlet;
#X obj 64 96 list length;
#X obj 64 58 t a a b;
#X obj 64 128 until;
#X obj 64 160 f;
#X obj 98 161 + 1;
#X msg 115 127 0;
#X obj 65 238 list split;
#X obj 65 217 list;
#X obj 65 190 t b f;
#X obj 66 269 list split 1;
#X connect 0 0 3 0;
#X connect 2 0 4 0;
#X connect 3 0 2 0;
#X connect 3 1 9 1;
#X connect 3 2 7 0;
#X connect 4 0 5 0;
#X connect 5 0 6 0;
#X connect 5 0 10 0;
#X connect 6 0 5 1;
#X connect 7 0 5 1;
#X connect 8 1 11 0;
#X connect 9 0 8 0;
#X connect 10 0 9 0;
#X connect 10 1 8 1;
#X connect 11 0 1 0;
#X restore 135 211 pd iterate;
#X obj 49 90 t b a b;
#X text 181 126 collect;
#X text 136 191 iterate thru list;
#X connect 0 0 8 0;
#X connect 1 0 5 0;
#X connect 4 0 2 0;
#X connect 5 0 6 0;
#X connect 5 0 4 1;
#X connect 6 0 5 1;
#X connect 7 0 3 0;
#X connect 8 0 4 0;
#X connect 8 1 7 0;
#X connect 8 2 5 1;
