#N canvas 113 242 721 346 10;
#X obj 55 73 inlet;
#X obj 55 284 outlet;
#X text 53 31 convert scale unit (MIDI note) to FFT bins;
#X obj 135 138 samplerate~;
#X obj 55 104 t a b;
#X obj 55 248 /;
#X text 164 246 Hz per bin;
#X obj 411 71 loadbang;
#X obj 411 98 t b b;
#X obj 412 190 -;
#X text 451 216 midi notes per band;
#X obj 55 178 +;
#X obj 55 148 *;
#X text 542 75 \$3 fmin;
#X text 542 89 \$4 fmax;
#X text 542 103 \$5 bands;
#X obj 414 215 / \$5;
#X obj 452 125 f \$3;
#X obj 411 124 f \$4;
#X text 542 28 \$1 fft length;
#X text 541 43 \$2 scale type (log \, mel);
#X obj 55 212 \$2-hz;
#X obj 135 246 / \$1;
#X obj 411 150 hz-\$2;
#X obj 452 151 hz-\$2;
#X connect 0 0 4 0;
#X connect 3 0 22 0;
#X connect 4 0 12 0;
#X connect 4 1 3 0;
#X connect 5 0 1 0;
#X connect 7 0 8 0;
#X connect 8 0 18 0;
#X connect 8 1 17 0;
#X connect 9 0 16 0;
#X connect 11 0 21 0;
#X connect 12 0 11 0;
#X connect 16 0 12 1;
#X connect 17 0 24 0;
#X connect 18 0 23 0;
#X connect 21 0 5 0;
#X connect 22 0 5 1;
#X connect 23 0 9 0;
#X connect 24 0 9 1;
#X connect 24 0 11 1;
