#N canvas 91 55 454 398 10;
#X obj 50 121 inlet~;
#X obj 50 164 rfft~;
#X obj 44 211 *~;
#X obj 77 211 *~;
#X obj 56 249 +~;
#X text 62 265 power spectrum;
#X obj 56 332 outlet;
#X obj 123 121 block~ \$1 \$2;
#X text 259 120 \$1 FFT length;
#X text 260 137 \$2 overlap factor (2);
#X obj 56 298 spect_parts \$1 \$3 \$4 \$5 \$6;
#X text 260 171 \$4 fmin (Hz);
#X text 260 189 \$5 fmax (Hz);
#X text 261 206 \$6 bands;
#X text 259 155 \$3 scale (log \, mel);
#X text 50 28 FFT rescaling to arbitrary frequency scales;
#X text 50 43 using triangular windows;
#X text 50 63 (c)2017 \, grrrr.org;
#X connect 0 0 1 0;
#X connect 1 0 2 0;
#X connect 1 0 2 1;
#X connect 1 1 3 0;
#X connect 1 1 3 1;
#X connect 2 0 4 0;
#X connect 3 0 4 1;
#X connect 4 0 10 0;
#X connect 10 0 6 0;
