#N canvas 73 51 432 384 10;
#X obj 50 121 inlet~;
#X obj 50 164 rfft~;
#X obj 44 211 *~;
#X obj 77 211 *~;
#X obj 56 249 +~;
#X text 62 265 power spectrum;
#X obj 56 332 outlet;
#X obj 123 121 block~ \$1 \$2;
#X text 259 120 \$1 FFT length;
#X text 260 137 \$2 overlap factor (2);
#X text 260 171 \$4 fmin (Hz);
#X text 260 189 \$5 fmax (Hz);
#X text 261 206 \$6 bands;
#X text 259 155 \$3 scale (log \, mel);
#X text 50 28 FFT rescaling to arbitrary frequency scales;
#X text 50 43 using triangular windows;
#X text 50 63 (c)2017 \, grrrr.org;
#N canvas 0 22 590 569 spect_parts 0;
#X obj 51 32 inlet~;
#X obj 123 31 bang~;
#X obj 49 228 outlet;
#N canvas 0 22 527 718 \$0-dyn 0;
#X obj 97 26 inlet~;
#X obj 159 26 inlet;
#X restore 51 115 pd \$0-dyn;
#X obj 76 87 t b b;
#X obj 49 201 array get \$0-res;
#X obj 216 178 loadbang;
#X obj 216 201 t b b;
#X obj 216 249 until;
#X obj 216 277 f;
#X msg 264 251 0;
#X obj 260 278 + 1;
#X text 214 154 Populate \$0-dyn subpatch;
#X obj 216 511 s pd-\$0-dyn;
#X obj 301 418 list prepend obj 50;
#X obj 301 439 list trim;
#X obj 364 370 list prepend spect_part \$0-res;
#X obj 301 349 * 20;
#X obj 301 397 list append;
#X obj 301 369 + 100;
#X obj 216 449 + 2;
#X obj 216 308 t a a a;
#X msg 216 472 connect 0 0 \$1 0 \, connect 1 0 \$1 1 \, loadbang;
#X text 47 134 individual filters;
#X text 213 54 \$3 scale type (log \, mel);
#X text 213 69 \$4 fmin;
#X text 213 84 \$5 fmax;
#X text 212 100 \$6 bands;
#X text 213 23 \$1 FFT length;
#X text 213 39 \$2 not used;
#X obj 364 348 list append \$1 \$3 \$4 \$5 \$6;
#X obj 216 226 f \$6;
#X obj 72 171 table \$0-res \$6;
#X connect 0 0 3 0;
#X connect 1 0 4 0;
#X connect 4 0 5 0;
#X connect 4 1 3 1;
#X connect 5 0 2 0;
#X connect 6 0 7 0;
#X connect 7 0 31 0;
#X connect 7 1 10 0;
#X connect 8 0 9 0;
#X connect 9 0 11 0;
#X connect 9 0 21 0;
#X connect 10 0 9 1;
#X connect 11 0 9 1;
#X connect 14 0 15 0;
#X connect 15 0 13 0;
#X connect 16 0 18 1;
#X connect 17 0 19 0;
#X connect 18 0 14 0;
#X connect 19 0 18 0;
#X connect 20 0 22 0;
#X connect 21 0 20 0;
#X connect 21 1 17 0;
#X connect 21 2 30 0;
#X connect 22 0 13 0;
#X connect 30 0 16 0;
#X connect 31 0 8 0;
#X restore 56 298 pd spect_parts;
#X connect 0 0 1 0;
#X connect 1 0 2 0;
#X connect 1 0 2 1;
#X connect 1 1 3 0;
#X connect 1 1 3 1;
#X connect 2 0 4 0;
#X connect 3 0 4 1;
#X connect 4 0 17 0;
#X connect 17 0 6 0;
