#N canvas 54 36 574 569 10;
#X obj 51 32 inlet~;
#X obj 123 31 bang~;
#X text 213 23 \$1 fft length;
#X obj 49 228 outlet;
#N canvas 0 22 527 718 \$0-dyn 0;
#X obj 97 26 inlet~;
#X obj 159 26 inlet;
#X restore 51 115 pd \$0-dyn;
#X obj 76 87 t b b;
#X obj 49 201 array get \$0-res;
#X obj 216 178 loadbang;
#X obj 216 201 t b b;
#X obj 216 249 until;
#X obj 216 277 f;
#X msg 264 251 0;
#X obj 260 278 + 1;
#X text 214 154 Populate \$0-dyn subpatch;
#X obj 212 514 s pd-\$0-dyn;
#X obj 299 422 list prepend obj 50;
#X obj 213 490 list trim;
#X obj 364 370 list prepend spect_part \$0-res;
#X obj 301 349 * 20;
#X obj 300 400 list append;
#X obj 301 369 + 100;
#X obj 213 423 + 2;
#X obj 216 308 t a a a;
#X msg 213 456 connect 0 0 \$1 0 \, connect 1 0 \$1 1 \, loadbang;
#X text 212 44 \$2 scale type (log \, mel);
#X text 213 64 \$3 fmin;
#X text 213 83 \$4 fmax;
#X text 214 102 \$5 bands;
#X obj 364 348 list append \$1 \$2 \$3 \$4 \$5;
#X obj 72 171 table \$0-res \$5;
#X obj 217 226 f \$5;
#X text 47 134 individual filters;
#X connect 0 0 4 0;
#X connect 1 0 5 0;
#X connect 5 0 6 0;
#X connect 5 1 4 1;
#X connect 6 0 3 0;
#X connect 7 0 8 0;
#X connect 8 0 30 0;
#X connect 8 1 11 0;
#X connect 9 0 10 0;
#X connect 10 0 12 0;
#X connect 10 0 22 0;
#X connect 11 0 10 1;
#X connect 12 0 10 1;
#X connect 15 0 16 0;
#X connect 16 0 14 0;
#X connect 17 0 19 1;
#X connect 18 0 20 0;
#X connect 19 0 15 0;
#X connect 20 0 19 0;
#X connect 21 0 23 0;
#X connect 22 0 21 0;
#X connect 22 1 18 0;
#X connect 22 2 28 0;
#X connect 23 0 16 0;
#X connect 28 0 17 0;
#X connect 30 0 9 0;
