#N canvas 87 88 484 470 10;
#X obj 37 160 *~;
#X obj 37 53 inlet~;
#X obj 100 349 loadbang;
#X obj 37 283 rpole~ 1;
#X text 66 164 apply window;
#X text 95 285 sum vector;
#X obj 37 310 snapshot~;
#X obj 100 372 f \$2;
#X text 133 371 band index;
#X obj 98 205 t b b;
#X msg 75 229 clear;
#X obj 37 396 tabwrite \$1;
#X obj 96 53 inlet;
#X text 37 27 Apply triangular window;
#N canvas 0 22 441 413 make_tri_window 0;
#X obj 30 74 loadbang;
#X obj 30 166 until;
#X obj 31 100 t b b;
#X obj 165 162 + 1;
#X obj 131 163 - 1;
#X obj 60 196 + 1;
#X obj 30 196 f;
#X msg 72 166 0;
#X text 148 124 band index;
#X obj 31 226 t a a;
#X obj 32 254 moses;
#X obj 30 345 max 0;
#X obj 30 279 expr ($f1-$f3)/($f2-$f3);
#X text 184 280 lower slope;
#X text 212 308 upper slope;
#X obj 60 307 expr ($f3-$f1)/($f3-$f2);
#X obj 118 125 f \$2;
#X obj 31 141 f \$3;
#X obj 118 199 scl2bin \$3 \$4 \$5 \$6 \$7;
#X obj 131 221 scl2bin \$3 \$4 \$5 \$6 \$7;
#X obj 165 243 scl2bin \$3 \$4 \$5 \$6 \$7;
#X text 28 15 Make triangular window;
#X text 29 32 http://haythamfayek.com/2016/04/21/speech-processing-for-machine-learning.html
;
#X obj 31 368 tabwrite \$0-tri;
#X connect 0 0 2 0;
#X connect 1 0 6 0;
#X connect 2 0 17 0;
#X connect 2 1 7 0;
#X connect 2 1 16 0;
#X connect 3 0 20 0;
#X connect 4 0 19 0;
#X connect 5 0 6 1;
#X connect 6 0 5 0;
#X connect 6 0 9 0;
#X connect 7 0 6 1;
#X connect 9 0 10 0;
#X connect 9 1 23 1;
#X connect 10 0 12 0;
#X connect 10 1 15 0;
#X connect 11 0 23 0;
#X connect 12 0 11 0;
#X connect 15 0 11 0;
#X connect 16 0 4 0;
#X connect 16 0 3 0;
#X connect 16 0 18 0;
#X connect 17 0 1 0;
#X connect 18 0 10 1;
#X connect 18 0 12 1;
#X connect 18 0 15 1;
#X connect 19 0 12 2;
#X connect 20 0 15 2;
#X restore 211 214 pd make_tri_window;
#X text 99 313 get accumulated value;
#X obj 59 132 tabreceive~ \$0-tri;
#X text 223 50 \$1 result table;
#X text 223 67 \$2 band index;
#X text 223 84 \$3 fft length;
#X text 223 101 \$4 scale type (log \, mel);
#X text 223 135 \$6 fmax;
#X text 223 118 \$5 fmin;
#X text 223 152 \$7 bands;
#X obj 60 104 table \$0-tri \$3;
#X connect 0 0 3 0;
#X connect 1 0 0 0;
#X connect 2 0 7 0;
#X connect 3 0 6 0;
#X connect 6 0 11 0;
#X connect 7 0 11 1;
#X connect 9 0 10 0;
#X connect 9 1 6 0;
#X connect 10 0 3 0;
#X connect 12 0 9 0;
#X connect 16 0 0 1;
